<svg xmlns="http://www.w3.org/2000/svg" width="1289.661" height="198.75" viewBox="0 0 1289.661 198.75">
  <defs>
    <style>
      .cls-1 {
        fill-rule: evenodd;
      }
    </style>
  </defs>
  <path id="Logo" className="cls-1" d="M404.714,250.934H567.639q10.649,0,17.571,5.813a42.618,42.618,0,0,1,11,14.25,66.232,66.232,0,0,1,5.68,18,104.878,104.878,0,0,1,1.6,17.062,59.725,59.725,0,0,1-7.1,28.875,80.611,80.611,0,0,1-18.1,22.688,84.352,84.352,0,0,1-24.137,14.812,67.762,67.762,0,0,1-25.2,5.25H429.206l-24.847,72H336.207Zm30.881,108,34.076-31.875h56.793q0.349,0,1.6-1.687t2.662-3.938q1.414-2.25,2.662-4.312a16.659,16.659,0,0,0,1.6-3.188l0.71-1.875a4.635,4.635,0,0,1-.71-1.875,38.214,38.214,0,0,0-3.727-5.062c-1.775-2.121-2.9-3.188-3.372-3.188H455.118Zm203.173-108H706.92l-68.507,198.75H570.262Zm290.212,0a103.294,103.294,0,0,1-8.341,13.688q-5.857,8.438-12.424,16.687a148.02,148.02,0,0,1-12.778,14.25q-6.215,6-9.051,6H777.059l-20.233,58.875,33.721-34.5h82l-50.759,50.625H751.147l-7.809,22.5H879.286q-0.357.756-1.774,3.188t-2.84,5.062q-1.422,2.628-2.84,4.875a27.175,27.175,0,0,1-1.774,2.625,112.216,112.216,0,0,1-8.7,10.5q-5.506,6-10.826,11.438t-9.406,9.187q-4.086,3.753-4.437,3.75H658.148l68.507-198.75H928.98Zm12,0H1099.29q12.78,0,20.59,5.625a36.739,36.739,0,0,1,11.89,14.25,61.234,61.234,0,0,1,5.32,18.75,154.318,154.318,0,0,1,1.24,18.75q0,19.125-8.87,31.5a66.249,66.249,0,0,1-22.18,19.688,101.612,101.612,0,0,1-29.47,10.5,265.23,265.23,0,0,1-30.35,4.312l69.58,75.375h-75.96l-73.125-71.25-3.905,3-23.427,68.25H872.471Zm128.492,57.375a10.951,10.951,0,0,0-1.06-5.062c-0.71-1.371-2.49-2.063-5.33-2.063H991.737l-20.233,58.5,31.236-33.375h56.79a7.857,7.857,0,0,0,7.63-5.062,21.832,21.832,0,0,0,2.31-8.813v-4.125Zm313.67-57.375a101.768,101.768,0,0,1-8.34,13.688q-5.85,8.438-12.42,16.687a147.492,147.492,0,0,1-12.78,14.25q-6.21,6-9.05,6H1231.22l-20.23,58.875,33.72-34.5h82l-50.76,50.625h-70.64l-7.81,22.5h135.95c-0.24.5-.83,1.565-1.78,3.188s-1.89,3.316-2.83,5.062-1.9,3.375-2.84,4.875a27.5,27.5,0,0,1-1.78,2.625,111.678,111.678,0,0,1-8.7,10.5q-5.505,6-10.82,11.438t-9.41,9.187q-4.08,3.753-4.44,3.75H1112.31l68.51-198.75h202.32Zm12,0h68.15l-30.88,89.25,117.49-89.25h75.96l-122.81,99.375,68.15,99.375h-75.96l-69.57-89.25-30.88,89.25h-68.16Z" transform="translate(-336.219 -250.938)"/>
</svg>